{"title":"Messengers 2-The Scarecrow-AC3-5,1-DVDRip[Eng]2009","uid":5010493,"size":1328050856,"categoryP":"video","categoryS":"movies","magnet":"?xt=urn:btih:674ea7541dd99683296ed02c5bb8d83ee5b172b9&amp;dn=Messengers+2-The+Scarecrow-AC3-5%2C1-DVDRip%5BEng%5D2009&amp;tr=udp%3A%2F%2Ftracker.openbittorrent.com%3A80&amp;tr=udp%3A%2F%2Fopen.demonii.com%3A1337&amp;tr=udp%3A%2F%2Ftracker.coppersurfer.tk%3A6969&amp;tr=udp%3A%2F%2Fexodus.desync.com%3A6969","seeders":4,"leechers":3,"uploader":"FatFreddy31","files":3,"time":1247962366,"description":" &lt;a href=&quot;http://www.imdb.com/title/tt1299653/&quot; rel=&quot;nofollow&quot; target=&quot;_NEW&quot;&gt;http://www.imdb.com/title/tt1299653/&lt;/a&gt;\n\nUser Rating:4.2/10 - 133 votes\n\nHorror\n\nDirector:Martin Barnewitz\n\nCast:Erbi Ago/Darcy Fowers/Kalina Green/Claire Holt, and others.\n\nPlot:\nMessengers 2: The Scarecrow tells the story of poor John , a farmer struggling with a number of problems. His cornfield doesn't look healthy, crows are wreaking havoc everywhere in his fields, the bank wants to foreclose on his farm, no one will lend the guy more credit, his irrigation system doesn't work, and to add insult to injury, John's wife Mary may be having an affair...\n\nInfo:\n\nGeneral\nComplete name                    : Messengers 2-The Scarecrow-AC3-5,1-DVDRip[Eng]2009.avi\nFormat                           : AVI\nFormat/Info                      : Audio Video Interleave\nFile size                        : 1.24 GiB\nDuration                         : 1h 33mn\nOverall bit rate                 : 1 887 Kbps\nWriting application              : VirtualDubMod 1.5.4.1 (build 2178/release)\nWriting library                  : VirtualDubMod build 2178/release\n\nVideo\nFormat                           : MPEG-4 Visual\nFormat profile                   : Simple@L3\nFormat settings, BVOP            : No\nFormat settings, QPel            : No\nFormat settings, GMC             : No warppoints\nFormat settings, Matrix          : Default\nCodec ID                         : XVID\nCodec ID/Hint                    : XviD\nDuration                         : 1h 33mn\nBit rate                         : 1 432 Kbps\nWidth                            : 624 pixels\nHeight                           : 336 pixels\nDisplay aspect ratio             : 1.857\nFrame rate                       : 23.976 fps\nResolution                       : 24 bits\nColorimetry                      : 4:2:0\nScan type                        : Progressive\nBits/(Pixel*Frame)               : 0.285\nStream size                      : 961 MiB (76%)\nWriting library                  : XviD 50\n\nAudio\nFormat                           : AC-3\nFormat/Info                      : Audio Coding 3\nCodec ID                         : 2000\nDuration                         : 1h 33mn\nBit rate mode                    : Constant\nBit rate                         : 448 Kbps\nChannel(s)                       : 6 channels\nChannel positions                : Front: L C R, Surround: L R, LFE\nSampling rate                    : 48.0 KHz\nStream size                      : 301 MiB (24%)\nAlignment                        : Split accross interleaves\nInterleave, duration             : 83 ms (2.00 video frames)\nInterleave, preload duration     : 500 ms\nLanguage                         : English\n\nEnjoy...","torrent":{"xt":"urn:btih:674ea7541dd99683296ed02c5bb8d83ee5b172b9","amp;dn":"Messengers+2-The+Scarecrow-AC3-5%2C1-DVDRip%5BEng%5D2009","amp;tr":["udp%3A%2F%2Ftracker.openbittorrent.com%3A80","udp%3A%2F%2Fopen.demonii.com%3A1337","udp%3A%2F%2Ftracker.coppersurfer.tk%3A6969","udp%3A%2F%2Fexodus.desync.com%3A6969"],"infoHash":"674ea7541dd99683296ed02c5bb8d83ee5b172b9","infoHashBuffer":{"type":"Buffer","data":[103,78,167,84,29,217,150,131,41,110,208,44,91,184,216,62,229,177,114,185]},"announce":[],"urlList":[]}}